<svg xmlns="http://www.w3.org/2000/svg" width="682.667" height="682.667" version="1.0" viewBox="0 0 512 512"><path d="M155.1 9.6c-1.2 1.5-2.1 3.7-2.1 4.9 0 2.2-.3 2.3-13.8 2.7-13.6.3-14 .4-21.4 4-17.3 8.6-26.8 24.9-25.5 43.7.5 8.3 2.5 14.3 6.9 20.9 1.5 2.4 2.8 4.4 2.8 4.6 0 .2-7.6.6-16.8.9-23.1 1-35.1 4.2-48.8 13.3C19.8 115.6 8 132.1 2.3 152 .6 158.1.5 164.8.5 271.5v113l2.7 8c8.2 23.9 27.2 41.9 50.7 48 8 2.1 15.8 2.2 17.7.3.9-.8 2.4-5.3 3.6-9.9 6.5-27.3 26.1-47.5 52.8-54.6 9.7-2.5 25.4-2.3 35.5.6 25.8 7.3 44.5 26.7 50.6 52.6 1.6 6.5 2.9 9.6 4.6 11.3l2.5 2.2 63-.2 63-.3 1.9-2.4c2.2-2.8 2.5-6.9.5-9.7-1.4-1.8-3.5-1.9-60.5-2.4l-59.1-.5-3.4-9.7c-9.2-26.8-30.4-47.1-58.1-55.4-8-2.4-10.6-2.7-23.5-2.7-12.8 0-15.5.3-23.3 2.7-16 4.8-28.7 12.5-39.2 23.8-9.9 10.5-17.8 24-20.6 34.9-.7 2.7-1.9 4.9-2.6 4.9-2.5 0-12.9-4.4-18-7.6-10.6-6.7-18.6-17-23-29.5-2.4-6.8-2.7-9.1-3.1-26.7l-.4-19.2h289l.4 18.7c.4 16.5.7 19.5 2.6 24.5 4.3 10.8 13 19.6 24 24 5.6 2.3 6.4 2.3 44.2 2.3 37.7 0 38.6 0 44-2.3 11.3-4.6 19.7-13 24.2-24.2 1.9-4.8 2.2-7.8 2.6-24.3l.4-18.7H497v16.2c0 10.4-.6 18.8-1.5 23.3-4.4 20.7-19.7 37.1-40.5 43.2-4.5 1.3-12.6 1.7-45.3 2l-39.7.5-2 2.5c-2.3 2.9-2.4 4.2-.9 7.6 1.8 3.9 5 4.7 18.3 4.7h12.3l17.8 28.8c9.8 15.8 18.7 29.7 19.8 31 2.9 3.2 7.9 3 10.6-.4 2-2.6 2.1-3.8 2.1-31.4v-28.7l6.7-1.2c24.3-4.5 45.6-23.6 54.1-48.6l2.7-8 .3-52.1c.2-43 0-53.3-1.2-59.2-2.3-11.2-40.3-127.9-44.5-136.7-9.8-20.6-29.5-36.6-52.1-42.4-4.1-1-13-2.2-19.8-2.6-6.7-.4-12.2-.9-12.2-1.1 0-.2 1.3-2.2 2.9-4.6 5.1-7.8 6.6-13.3 6.6-24.9 0-10.2-.1-10.8-3.8-18.2-5-10.1-11.8-16.9-21.6-21.6-7.4-3.5-8-3.6-21.3-3.9-13.5-.4-13.8-.5-13.8-2.7 0-3.8-3.7-7.5-7.5-7.5-3.9 0-7.5 3.7-7.5 7.6V17H168v-2.8c0-6.6-8.9-9.7-12.9-4.6zM153 61.5V91h-10.8c-13 0-18.2-1.5-24.7-7.2-15.3-13.5-13.1-37 4.4-47.5 6.2-3.7 7.3-4 20.9-4.2L153 32v29.5zm163 0V91H168V32h148v29.5zm44.5-26.3c17.8 9.4 21.9 31.5 8.4 46.2-7 7.7-12.4 9.6-26.9 9.6h-11V31.8l12.3.4c10.8.3 12.8.7 17.2 3zm49.9 73.4c3.3.8 9.5 3.2 13.6 5.2 9.8 4.8 23 17.7 27.8 27.2 1.8 3.6 12.5 35.1 23.9 70l20.6 63.5.5 26.7.4 26.8H446v-65.9c0-40-.4-67.9-1-71.1-2.5-13-11.2-24.5-22.9-30.3l-6.6-3.2h-81l-5.8 2.7c-11.5 5.4-20.9 17.2-23.6 29.6-.7 3.6-1.1 26.3-1.1 71.7V328H14.9l.3-84.3c.3-78.7.5-84.6 2.2-89.7 7.6-22.6 23.2-38.3 44.6-44.7l7.5-2.2h167.4c148.7-.1 168 .1 173.5 1.5zm-17 95.5 2.6 2v43.2c0 42.8 0 43.1-2.2 45.4-2.1 2.2-2.7 2.3-18.7 2.3-15.5 0-16.6-.1-18.8-2.2l-2.3-2.1v-86.6l2.6-2c2.4-1.9 4-2.1 18.4-2.1 14.4 0 16 .2 18.4 2.1z"/><path d="M66 159c-11.9 4.3-21.5 13.5-26.3 25.2-2.1 5.1-2.2 6.8-2.5 48.1-.3 36.5-.1 43.7 1.3 49 3.1 12.1 11.3 22 23 27.8l6.9 3.4 17.2.3 17.1.4 2.2-2.8c2.8-3.5 2.7-6.9-.4-9.9-2.3-2.4-2.9-2.5-15.8-2.5-15.4 0-20.3-1.2-26.5-6.6-2.3-1.9-5.3-6-6.9-9.2-2.8-5.7-2.8-5.8-3.1-29.5l-.4-23.7H273v47.8l-3.3 6.4c-3.5 6.8-9.5 11.8-16.5 13.8-2.3.6-26.3 1-64.9 1h-61.2l-2.5 2.2c-3.6 3.3-3.9 7.5-.6 10.8 2 2 3.3 2 65.3 2 54.9 0 64.1-.2 68.8-1.6 15.4-4.5 27.5-18.7 29.9-35.1.5-3.7 1-22.3 1-41.3 0-19-.5-37.6-1-41.3-2.4-16.4-14.5-30.6-29.9-35.1-4.8-1.4-16.2-1.6-96-1.6-87.5.1-90.8.1-96.1 2zm89 34v21H51.7l.5-10.5c.7-12.5 3.4-19.3 10.1-25 7.2-6.2 8.8-6.4 53-6.4l39.7-.1v21zm98.2-20c7 2 13 7 16.5 13.8 3.1 6 3.3 7 3.3 16.8V214H171v-42h39.3c23.6 0 40.7.4 42.9 1zM130.2 388c-10.8 2.9-18.7 7.5-27.2 16-12.3 12.2-17.6 25.4-17.3 43 .2 16.6 6.3 30.1 18.9 41.9 37.7 35.3 99.3 8.8 99.6-42.9.1-11-1.6-18.1-7-28.5-4.5-8.8-15.3-19.7-23.9-24.3-13.1-6.9-29.1-8.9-43.1-5.2zm18.2 48.4c6.8 2.8 8.7 10 4 15.5-6.1 7.3-17.3 3.4-17.4-6.1 0-4.2 3.7-9.4 7.3-10.1 1.2-.2 2.3-.5 2.5-.6.1 0 1.8.5 3.6 1.3z"/></svg>